<svg width="58" height="13" viewBox="0 0 58 13" fill="none" xmlns="http://www.w3.org/2000/svg">
<path d="M4.204 0.848C5.42 0.848 6.47067 1.07733 7.356 1.536C8.252 1.984 8.93467 2.62933 9.404 3.472C9.884 4.31467 10.124 5.30667 10.124 6.448C10.124 7.58933 9.884 8.58133 9.404 9.424C8.93467 10.256 8.252 10.896 7.356 11.344C6.47067 11.7813 5.42 12 4.204 12H0.732V0.848H4.204ZM4.204 10.8C5.644 10.8 6.74267 10.4213 7.5 9.664C8.25733 8.896 8.636 7.824 8.636 6.448C8.636 5.06133 8.252 3.97867 7.484 3.2C6.72667 2.42133 5.63333 2.032 4.204 2.032H2.188V10.8H4.204ZM15.8685 12.144C15.0472 12.144 14.3005 11.9573 13.6285 11.584C12.9672 11.2107 12.4445 10.6827 12.0605 10C11.6872 9.30667 11.5005 8.50667 11.5005 7.6C11.5005 6.704 11.6925 5.91467 12.0765 5.232C12.4712 4.53867 13.0045 4.01067 13.6765 3.648C14.3485 3.27467 15.1005 3.088 15.9325 3.088C16.7645 3.088 17.5165 3.27467 18.1885 3.648C18.8605 4.01067 19.3885 4.53333 19.7725 5.216C20.1672 5.89867 20.3645 6.69333 20.3645 7.6C20.3645 8.50667 20.1618 9.30667 19.7565 10C19.3618 10.6827 18.8232 11.2107 18.1405 11.584C17.4578 11.9573 16.7005 12.144 15.8685 12.144ZM15.8685 10.864C16.3912 10.864 16.8818 10.7413 17.3405 10.496C17.7992 10.2507 18.1672 9.88267 18.4445 9.392C18.7325 8.90133 18.8765 8.304 18.8765 7.6C18.8765 6.896 18.7378 6.29867 18.4605 5.808C18.1832 5.31733 17.8205 4.95467 17.3725 4.72C16.9245 4.47467 16.4392 4.352 15.9165 4.352C15.3832 4.352 14.8925 4.47467 14.4445 4.72C14.0072 4.95467 13.6552 5.31733 13.3885 5.808C13.1218 6.29867 12.9885 6.896 12.9885 7.6C12.9885 8.31467 13.1165 8.91733 13.3725 9.408C13.6392 9.89867 13.9912 10.2667 14.4285 10.512C14.8658 10.7467 15.3458 10.864 15.8685 10.864ZM26.5509 3.072C27.6175 3.072 28.4815 3.39733 29.1429 4.048C29.8042 4.688 30.1349 5.616 30.1349 6.832V12H28.6949V7.04C28.6949 6.16533 28.4762 5.49867 28.0389 5.04C27.6015 4.57067 27.0042 4.336 26.2469 4.336C25.4789 4.336 24.8655 4.576 24.4069 5.056C23.9589 5.536 23.7349 6.23467 23.7349 7.152V12H22.2789V3.232H23.7349V4.48C24.0229 4.032 24.4122 3.68533 24.9029 3.44C25.4042 3.19467 25.9535 3.072 26.5509 3.072ZM31.9693 7.584C31.9693 6.688 32.1506 5.904 32.5133 5.232C32.8759 4.54933 33.3719 4.02133 34.0013 3.648C34.6413 3.27467 35.3506 3.088 36.1293 3.088C36.8973 3.088 37.5639 3.25333 38.1293 3.584C38.6946 3.91467 39.1159 4.33067 39.3933 4.832V3.232H40.8653V12H39.3933V10.368C39.1053 10.88 38.6733 11.3067 38.0973 11.648C37.5319 11.9787 36.8706 12.144 36.1133 12.144C35.3346 12.144 34.6306 11.952 34.0013 11.568C33.3719 11.184 32.8759 10.6453 32.5133 9.952C32.1506 9.25867 31.9693 8.46933 31.9693 7.584ZM39.3933 7.6C39.3933 6.93867 39.2599 6.36267 38.9933 5.872C38.7266 5.38133 38.3639 5.008 37.9053 4.752C37.4573 4.48533 36.9613 4.352 36.4173 4.352C35.8733 4.352 35.3773 4.48 34.9293 4.736C34.4813 4.992 34.1239 5.36533 33.8573 5.856C33.5906 6.34667 33.4573 6.92267 33.4573 7.584C33.4573 8.256 33.5906 8.84267 33.8573 9.344C34.1239 9.83467 34.4813 10.2133 34.9293 10.48C35.3773 10.736 35.8733 10.864 36.4173 10.864C36.9613 10.864 37.4573 10.736 37.9053 10.48C38.3639 10.2133 38.7266 9.83467 38.9933 9.344C39.2599 8.84267 39.3933 8.26133 39.3933 7.6ZM45.1018 4.432V9.6C45.1018 10.0267 45.1924 10.3307 45.3738 10.512C45.5551 10.6827 45.8698 10.768 46.3177 10.768H47.3898V12H46.0778C45.2671 12 44.6591 11.8133 44.2538 11.44C43.8484 11.0667 43.6458 10.4533 43.6458 9.6V4.432H42.5098V3.232H43.6458V1.024H45.1018V3.232H47.3898V4.432H45.1018ZM57.1539 7.28C57.1539 7.55733 57.1379 7.85067 57.1059 8.16H50.0979C50.1512 9.024 50.4445 9.70133 50.9779 10.192C51.5219 10.672 52.1779 10.912 52.9459 10.912C53.5752 10.912 54.0979 10.768 54.5139 10.48C54.9405 10.1813 55.2392 9.78667 55.4099 9.296H56.9779C56.7432 10.1387 56.2739 10.8267 55.5699 11.36C54.8659 11.8827 53.9912 12.144 52.9459 12.144C52.1139 12.144 51.3672 11.9573 50.7059 11.584C50.0552 11.2107 49.5432 10.6827 49.1699 10C48.7965 9.30667 48.6099 8.50667 48.6099 7.6C48.6099 6.69333 48.7912 5.89867 49.1539 5.216C49.5165 4.53333 50.0232 4.01067 50.6739 3.648C51.3352 3.27467 52.0925 3.088 52.9459 3.088C53.7779 3.088 54.5139 3.26933 55.1539 3.632C55.7939 3.99467 56.2845 4.496 56.6259 5.136C56.9779 5.76533 57.1539 6.48 57.1539 7.28ZM55.6499 6.976C55.6499 6.42133 55.5272 5.94667 55.2819 5.552C55.0365 5.14667 54.7005 4.84267 54.2739 4.64C53.8579 4.42667 53.3939 4.32 52.8819 4.32C52.1459 4.32 51.5165 4.55467 50.9939 5.024C50.4819 5.49333 50.1885 6.144 50.1139 6.976H55.6499Z" fill="white"/>
</svg>
